<svg xmlns="http://www.w3.org/2000/svg" version="1.1" baseProfile="tiny" x="0" y="0" viewBox="0 0 270 50" xml:space="preserve"><g id="logo-type"><path d="M105.7 7.3c5 0 8.4 1.9 8.4 1.9l-1 2.4c0 0-3.1-2.1-7.6-2.1 -7.1 0-10.6 5.6-10.6 11.2 0 6.1 4.2 11 11.4 11 2.6 0 5.1-0.8 5.1-0.8v-8.2h-5.6v-2.1h8.1v12.1c0 0-4.4 1.2-8.1 1.2 -7.5 0-13.7-4.8-13.7-12.9C92.2 13.7 97.1 7.3 105.7 7.3z"/><path d="M120.7 7.7h14.7v2.1h-12.1v9.3h9.6v2.1h-9.6v9.9h12v2.1h-14.5V7.7z"/><path d="M141.3 7.7h2.5l15.8 21.8V7.7H162v25.5h-2.5l-15.8-21.5v21.5h-2.4V7.7z"/><path d="M169.5 7.7h2.5v15.8c0 5.6 3.4 8 7.7 8 4.3 0 7.7-2.3 7.7-7.7V7.7h2.5v15.9c0 6.6-4.5 10.1-10.2 10.1 -5.6 0-10.2-2.6-10.2-9.5V7.7z"/><path d="M197.5 7.7h2.5v11.1h0.5l10.8-11.1h3.2L202.6 19.7l12.3 13.5h-3.4l-11.1-12.3h-0.5v12.3h-2.5V7.7z"/><path d="M229.4 7.3c7.7 0 12.9 5.6 12.9 12.7 0 7.2-5.4 13.7-13.2 13.7 -7.6 0-13-6-13-13.2C216.1 13.7 221 7.3 229.4 7.3zM229.2 31.5c6.5 0 10.4-5.7 10.4-11.2 0-5.5-3.7-10.9-10.4-10.9s-10.4 5.5-10.4 10.8C218.8 25.6 222.6 31.5 229.2 31.5z"/><path d="M248.3 7.7h2.5l15.8 21.8V7.7h2.5v25.5h-2.5l-15.8-21.5v21.5h-2.4V7.7z"/></g><path id="logo-g" d="M36.9 26.9c0 0-4.5 1.2-9.1 1.2 -12.7 0-20.6-8.3-20.6-19.6 0-0.3 0-0.5 0-0.8H1c0 0.4 0 0.9 0 1.3 0 15.1 11.7 24.2 25.9 24.2 7.1 0 15.9-2.2 15.9-2.2V12.8l-5.9-6.8V26.9z"/><path id="logo-k" d="M48.7 19.6V7.8h5.9v13.6L73.9 1h7.5l-21.6 22.5 22.5 25.5h-7.8L48.7 19.6z"/></svg>